<svg width="480" height="65" viewBox="0 0 480 65" fill="none" xmlns="http://www.w3.org/2000/svg">
<path d="M36.816 25.704C36.816 30.824 35.856 35.112 33.936 38.568C32.0587 42.024 29.3493 44.6267 25.808 46.376C22.2667 48.1253 17.9787 49 12.944 49H0.208V3.304H14.288C18.896 3.304 22.8853 4.15733 26.256 5.864C29.6267 7.57067 32.2293 10.088 34.064 13.416C35.8987 16.7013 36.816 20.7973 36.816 25.704ZM30.736 25.896C30.736 21.8427 30.0533 18.5147 28.688 15.912C27.3653 13.3093 25.4027 11.3893 22.8 10.152C20.24 8.872 17.1253 8.232 13.456 8.232H5.968V44.072H12.176C18.3627 44.072 22.992 42.5573 26.064 39.528C29.1787 36.456 30.736 31.912 30.736 25.896ZM51.822 14.696V49H46.19V14.696H51.822ZM49.07 1.832C49.9233 1.832 50.67 2.13066 51.31 2.728C51.9927 3.28266 52.334 4.17866 52.334 5.416C52.334 6.61066 51.9927 7.50666 51.31 8.104C50.67 8.70133 49.9233 9 49.07 9C48.1313 9 47.342 8.70133 46.702 8.104C46.062 7.50666 45.742 6.61066 45.742 5.416C45.742 4.17866 46.062 3.28266 46.702 2.728C47.342 2.13066 48.1313 1.832 49.07 1.832ZM74.85 14.056C77.1113 14.056 79.138 14.4827 80.93 15.336C82.7647 16.1893 84.322 17.4907 85.602 19.24H85.922L86.69 14.696H91.17V49.576C91.17 52.8187 90.6153 55.528 89.506 57.704C88.3967 59.9227 86.7113 61.5867 84.45 62.696C82.1887 63.8053 79.3087 64.36 75.81 64.36C73.3353 64.36 71.0527 64.168 68.962 63.784C66.914 63.4427 65.0793 62.9093 63.458 62.184V57C64.5673 57.5547 65.7833 58.024 67.106 58.408C68.4287 58.8347 69.858 59.1547 71.394 59.368C72.93 59.5813 74.5087 59.688 76.13 59.688C79.074 59.688 81.378 58.8133 83.042 57.064C84.7487 55.3573 85.602 53.0107 85.602 50.024V48.68C85.602 48.168 85.6233 47.4427 85.666 46.504C85.7087 45.5227 85.7513 44.84 85.794 44.456H85.538C84.3433 46.2053 82.85 47.5067 81.058 48.36C79.3087 49.2133 77.2607 49.64 74.914 49.64C70.4767 49.64 66.9993 48.0827 64.482 44.968C62.0073 41.8533 60.77 37.5013 60.77 31.912C60.77 28.2427 61.3247 25.0853 62.434 22.44C63.586 19.752 65.2073 17.6827 67.298 16.232C69.3887 14.7813 71.906 14.056 74.85 14.056ZM75.618 18.792C73.698 18.792 72.0553 19.304 70.69 20.328C69.3673 21.352 68.3433 22.8453 67.618 24.808C66.9353 26.7707 66.594 29.16 66.594 31.976C66.594 36.2 67.362 39.4427 68.898 41.704C70.4767 43.9227 72.7593 45.032 75.746 45.032C77.4953 45.032 78.9887 44.8187 80.226 44.392C81.4633 43.9227 82.4873 43.2187 83.298 42.28C84.1087 41.2987 84.706 40.0613 85.09 38.568C85.474 37.0747 85.666 35.304 85.666 33.256V31.912C85.666 28.7973 85.3033 26.28 84.578 24.36C83.8953 22.44 82.8073 21.032 81.314 20.136C79.8207 19.24 77.922 18.792 75.618 18.792ZM107.697 14.696V49H102.065V14.696H107.697ZM104.945 1.832C105.798 1.832 106.545 2.13066 107.185 2.728C107.868 3.28266 108.209 4.17866 108.209 5.416C108.209 6.61066 107.868 7.50666 107.185 8.104C106.545 8.70133 105.798 9 104.945 9C104.006 9 103.217 8.70133 102.577 8.104C101.937 7.50666 101.617 6.61066 101.617 5.416C101.617 4.17866 101.937 3.28266 102.577 2.728C103.217 2.13066 104.006 1.832 104.945 1.832ZM130.021 45.032C130.874 45.032 131.749 44.968 132.645 44.84C133.541 44.6693 134.266 44.4987 134.821 44.328V48.616C134.224 48.9147 133.37 49.1493 132.261 49.32C131.152 49.5333 130.085 49.64 129.061 49.64C127.269 49.64 125.605 49.3413 124.069 48.744C122.576 48.104 121.36 47.016 120.421 45.48C119.482 43.944 119.013 41.7893 119.013 39.016V19.048H114.149V16.36L119.077 14.12L121.317 6.824H124.645V14.696H134.565V19.048H124.645V38.888C124.645 40.9787 125.136 42.536 126.117 43.56C127.141 44.5413 128.442 45.032 130.021 45.032ZM154.682 14.12C158.863 14.12 161.957 15.0373 163.962 16.872C165.967 18.7067 166.97 21.6293 166.97 25.64V49H162.874L161.786 44.136H161.53C160.549 45.3733 159.525 46.4187 158.458 47.272C157.434 48.0827 156.239 48.68 154.874 49.064C153.551 49.448 151.93 49.64 150.01 49.64C147.962 49.64 146.106 49.2773 144.442 48.552C142.821 47.8267 141.541 46.7173 140.602 45.224C139.663 43.688 139.194 41.768 139.194 39.464C139.194 36.0507 140.538 33.4267 143.226 31.592C145.914 29.7147 150.053 28.6907 155.642 28.52L161.466 28.328V26.28C161.466 23.4213 160.847 21.4373 159.61 20.328C158.373 19.2187 156.623 18.664 154.362 18.664C152.57 18.664 150.863 18.9413 149.242 19.496C147.621 20.008 146.106 20.6053 144.698 21.288L142.97 17.064C144.463 16.2533 146.234 15.5707 148.282 15.016C150.33 14.4187 152.463 14.12 154.682 14.12ZM156.346 32.424C152.079 32.5947 149.114 33.2773 147.45 34.472C145.829 35.6667 145.018 37.352 145.018 39.528C145.018 41.448 145.594 42.856 146.746 43.752C147.941 44.648 149.455 45.096 151.29 45.096C154.191 45.096 156.602 44.3067 158.522 42.728C160.442 41.1067 161.402 38.632 161.402 35.304V32.232L156.346 32.424ZM183.197 49H177.565V0.359997H183.197V49ZM243.018 26.088C243.018 29.6293 242.57 32.8507 241.674 35.752C240.778 38.6107 239.434 41.0853 237.642 43.176C235.892 45.2667 233.695 46.8667 231.05 47.976C228.447 49.0853 225.418 49.64 221.962 49.64C218.378 49.64 215.263 49.0853 212.618 47.976C209.972 46.824 207.775 45.224 206.026 43.176C204.276 41.0853 202.975 38.5893 202.122 35.688C201.268 32.7867 200.842 29.5653 200.842 26.024C200.842 21.3307 201.61 17.2347 203.146 13.736C204.682 10.2373 207.007 7.50667 210.122 5.544C213.279 3.58133 217.247 2.6 222.026 2.6C226.591 2.6 230.431 3.58133 233.546 5.544C236.66 7.464 239.007 10.1947 240.586 13.736C242.207 17.2347 243.018 21.352 243.018 26.088ZM206.922 26.088C206.922 29.928 207.455 33.2347 208.522 36.008C209.588 38.7813 211.231 40.9147 213.45 42.408C215.711 43.9013 218.548 44.648 221.962 44.648C225.418 44.648 228.234 43.9013 230.41 42.408C232.628 40.9147 234.271 38.7813 235.338 36.008C236.404 33.2347 236.938 29.928 236.938 26.088C236.938 20.328 235.743 15.8267 233.354 12.584C230.964 9.29867 227.188 7.656 222.026 7.656C218.57 7.656 215.711 8.40267 213.45 9.896C211.231 11.3467 209.588 13.4587 208.522 16.232C207.455 18.9627 206.922 22.248 206.922 26.088ZM290.01 14.056C293.892 14.056 296.794 15.0587 298.714 17.064C300.634 19.0267 301.594 22.2267 301.594 26.664V49H296.026V26.92C296.026 24.232 295.45 22.2053 294.298 20.84C293.188 19.4747 291.439 18.792 289.05 18.792C285.722 18.792 283.332 19.752 281.882 21.672C280.474 23.592 279.77 26.3867 279.77 30.056V49H274.202V26.92C274.202 25.128 273.946 23.6347 273.434 22.44C272.922 21.2027 272.154 20.2853 271.13 19.688C270.106 19.0907 268.783 18.792 267.162 18.792C264.858 18.792 263.044 19.2827 261.722 20.264C260.399 21.2027 259.439 22.5893 258.842 24.424C258.287 26.2587 258.01 28.52 258.01 31.208V49H252.378V14.696H256.922L257.754 19.368H258.074C258.799 18.1733 259.674 17.192 260.698 16.424C261.764 15.6133 262.938 15.016 264.218 14.632C265.498 14.248 266.82 14.056 268.186 14.056C270.831 14.056 273.028 14.5253 274.778 15.464C276.57 16.4027 277.871 17.8533 278.682 19.816H279.002C280.154 17.8533 281.711 16.4027 283.674 15.464C285.679 14.5253 287.791 14.056 290.01 14.056ZM325.182 14.12C329.363 14.12 332.457 15.0373 334.462 16.872C336.467 18.7067 337.47 21.6293 337.47 25.64V49H333.374L332.286 44.136H332.03C331.049 45.3733 330.025 46.4187 328.958 47.272C327.934 48.0827 326.739 48.68 325.374 49.064C324.051 49.448 322.43 49.64 320.51 49.64C318.462 49.64 316.606 49.2773 314.942 48.552C313.321 47.8267 312.041 46.7173 311.102 45.224C310.163 43.688 309.694 41.768 309.694 39.464C309.694 36.0507 311.038 33.4267 313.726 31.592C316.414 29.7147 320.553 28.6907 326.142 28.52L331.966 28.328V26.28C331.966 23.4213 331.347 21.4373 330.11 20.328C328.873 19.2187 327.123 18.664 324.862 18.664C323.07 18.664 321.363 18.9413 319.742 19.496C318.121 20.008 316.606 20.6053 315.198 21.288L313.47 17.064C314.963 16.2533 316.734 15.5707 318.782 15.016C320.83 14.4187 322.963 14.12 325.182 14.12ZM326.846 32.424C322.579 32.5947 319.614 33.2773 317.95 34.472C316.329 35.6667 315.518 37.352 315.518 39.528C315.518 41.448 316.094 42.856 317.246 43.752C318.441 44.648 319.955 45.096 321.79 45.096C324.691 45.096 327.102 44.3067 329.022 42.728C330.942 41.1067 331.902 38.632 331.902 35.304V32.232L326.846 32.424ZM385.697 14.056C389.58 14.056 392.481 15.0587 394.401 17.064C396.321 19.0267 397.281 22.2267 397.281 26.664V49H391.713V26.92C391.713 24.232 391.137 22.2053 389.985 20.84C388.876 19.4747 387.126 18.792 384.737 18.792C381.409 18.792 379.02 19.752 377.569 21.672C376.161 23.592 375.457 26.3867 375.457 30.056V49H369.889V26.92C369.889 25.128 369.633 23.6347 369.121 22.44C368.609 21.2027 367.841 20.2853 366.817 19.688C365.793 19.0907 364.47 18.792 362.849 18.792C360.545 18.792 358.732 19.2827 357.409 20.264C356.086 21.2027 355.126 22.5893 354.529 24.424C353.974 26.2587 353.697 28.52 353.697 31.208V49H348.065V14.696H352.609L353.441 19.368H353.761C354.486 18.1733 355.361 17.192 356.385 16.424C357.452 15.6133 358.625 15.016 359.905 14.632C361.185 14.248 362.508 14.056 363.873 14.056C366.518 14.056 368.716 14.5253 370.465 15.464C372.257 16.4027 373.558 17.8533 374.369 19.816H374.689C375.841 17.8533 377.398 16.4027 379.361 15.464C381.366 14.5253 383.478 14.056 385.697 14.056ZM437.701 31.784C437.701 34.6427 437.318 37.1813 436.55 39.4C435.824 41.576 434.758 43.432 433.35 44.968C431.984 46.504 430.299 47.6773 428.294 48.488C426.331 49.256 424.134 49.64 421.702 49.64C419.44 49.64 417.35 49.256 415.43 48.488C413.51 47.6773 411.846 46.504 410.438 44.968C409.03 43.432 407.92 41.576 407.11 39.4C406.342 37.1813 405.958 34.6427 405.958 31.784C405.958 27.9867 406.598 24.7867 407.878 22.184C409.158 19.5387 410.992 17.5333 413.382 16.168C415.771 14.76 418.608 14.056 421.894 14.056C425.008 14.056 427.739 14.76 430.086 16.168C432.475 17.5333 434.331 19.5387 435.654 22.184C437.019 24.7867 437.701 27.9867 437.701 31.784ZM411.782 31.784C411.782 34.472 412.123 36.8187 412.806 38.824C413.531 40.7867 414.64 42.3013 416.134 43.368C417.627 44.4347 419.526 44.968 421.83 44.968C424.134 44.968 426.032 44.4347 427.526 43.368C429.019 42.3013 430.107 40.7867 430.79 38.824C431.515 36.8187 431.878 34.472 431.878 31.784C431.878 29.0533 431.515 26.728 430.79 24.808C430.064 22.888 428.955 21.416 427.462 20.392C426.011 19.3253 424.112 18.792 421.766 18.792C418.267 18.792 415.728 19.944 414.15 22.248C412.571 24.552 411.782 27.7307 411.782 31.784ZM462.628 14.056C463.268 14.056 463.95 14.0987 464.676 14.184C465.444 14.2267 466.105 14.312 466.66 14.44L465.956 19.624C465.401 19.496 464.782 19.3893 464.1 19.304C463.46 19.2187 462.841 19.176 462.244 19.176C460.921 19.176 459.662 19.4533 458.468 20.008C457.273 20.5627 456.206 21.352 455.268 22.376C454.329 23.3573 453.582 24.552 453.028 25.96C452.516 27.368 452.26 28.9467 452.26 30.696V49H446.628V14.696H451.236L451.876 20.968H452.132C452.857 19.688 453.732 18.536 454.756 17.512C455.78 16.4453 456.953 15.6133 458.276 15.016C459.598 14.376 461.049 14.056 462.628 14.056ZM478.697 14.696V49H473.065V14.696H478.697ZM475.945 1.832C476.798 1.832 477.545 2.13066 478.185 2.728C478.868 3.28266 479.209 4.17866 479.209 5.416C479.209 6.61066 478.868 7.50666 478.185 8.104C477.545 8.70133 476.798 9 475.945 9C475.006 9 474.217 8.70133 473.577 8.104C472.937 7.50666 472.617 6.61066 472.617 5.416C472.617 4.17866 472.937 3.28266 473.577 2.728C474.217 2.13066 475.006 1.832 475.945 1.832Z" fill="white"/>
</svg>
