<svg width="570" height="49" viewBox="0 0 570 49" fill="none" xmlns="http://www.w3.org/2000/svg">
<path d="M15.1818 48H0.113636V1.45454H15.6591C20.2197 1.45454 24.1364 2.38636 27.4091 4.25C30.6818 6.09848 33.1894 8.75757 34.9318 12.2273C36.6894 15.6818 37.5682 19.8258 37.5682 24.6591C37.5682 29.5076 36.6818 33.6742 34.9091 37.1591C33.1515 40.6439 30.6061 43.3258 27.2727 45.2045C23.9394 47.0682 19.9091 48 15.1818 48ZM7.13636 41.8636H14.7955C18.3409 41.8636 21.2879 41.197 23.6364 39.8636C25.9848 38.5152 27.7424 36.5682 28.9091 34.0227C30.0758 31.4621 30.6591 28.3409 30.6591 24.6591C30.6591 21.0076 30.0758 17.9091 28.9091 15.3636C27.7576 12.8182 26.0379 10.8864 23.75 9.56818C21.4621 8.25 18.6212 7.59091 15.2273 7.59091H7.13636V41.8636ZM53.3239 1.45454V48H46.3011V1.45454H53.3239ZM95.0511 16.1591C94.6117 14.7803 94.0208 13.5455 93.2784 12.4545C92.5511 11.3485 91.6799 10.4091 90.6648 9.63636C89.6496 8.84848 88.4905 8.25 87.1875 7.84091C85.8996 7.43182 84.483 7.22727 82.9375 7.22727C80.3163 7.22727 77.9527 7.90151 75.8466 9.25C73.7405 10.5985 72.0739 12.5758 70.8466 15.1818C69.6345 17.7727 69.0284 20.947 69.0284 24.7045C69.0284 28.4773 69.642 31.6667 70.8693 34.2727C72.0966 36.8788 73.7784 38.8561 75.9148 40.2045C78.0511 41.553 80.483 42.2273 83.2102 42.2273C85.7405 42.2273 87.9451 41.7121 89.8239 40.6818C91.7178 39.6515 93.1799 38.197 94.2102 36.3182C95.2557 34.4242 95.7784 32.197 95.7784 29.6364L97.5966 29.9773H84.2784V24.1818H102.574V29.4773C102.574 33.3864 101.741 36.7803 100.074 39.6591C98.4223 42.5227 96.1345 44.7348 93.2102 46.2955C90.3011 47.8561 86.9678 48.6364 83.2102 48.6364C78.9981 48.6364 75.3011 47.6667 72.1193 45.7273C68.9527 43.7879 66.483 41.0379 64.7102 37.4773C62.9375 33.9015 62.0511 29.6591 62.0511 24.75C62.0511 21.0379 62.5663 17.7045 63.5966 14.75C64.6269 11.7955 66.0739 9.28788 67.9375 7.22727C69.8163 5.15151 72.0208 3.56818 74.5511 2.47727C77.0966 1.37121 79.8769 0.81818 82.892 0.81818C85.4072 0.81818 87.7481 1.18939 89.9148 1.93182C92.0966 2.67424 94.036 3.72727 95.733 5.09091C97.4451 6.45455 98.8617 8.07576 99.983 9.95454C101.104 11.8182 101.862 13.8864 102.256 16.1591H95.0511ZM118.511 1.45454V48H111.489V1.45454H118.511ZM126.443 7.5V1.45454H162.466V7.5H147.943V48H140.943V7.5H126.443ZM168.858 48H161.403L178.153 1.45454H186.267L203.017 48H195.562L182.403 9.90909H182.04L168.858 48ZM170.108 29.7727H194.29V35.6818H170.108V29.7727ZM209.739 48V1.45454H216.761V41.9545H237.852V48H209.739ZM303.233 24.7273C303.233 29.697 302.324 33.9697 300.506 37.5455C298.688 41.1061 296.195 43.8485 293.028 45.7727C289.877 47.6818 286.294 48.6364 282.278 48.6364C278.248 48.6364 274.65 47.6818 271.483 45.7727C268.331 43.8485 265.847 41.0985 264.028 37.5227C262.21 33.947 261.301 29.6818 261.301 24.7273C261.301 19.7576 262.21 15.4924 264.028 11.9318C265.847 8.35606 268.331 5.61363 271.483 3.70454C274.65 1.7803 278.248 0.81818 282.278 0.81818C286.294 0.81818 289.877 1.7803 293.028 3.70454C296.195 5.61363 298.688 8.35606 300.506 11.9318C302.324 15.4924 303.233 19.7576 303.233 24.7273ZM296.278 24.7273C296.278 20.9394 295.665 17.75 294.438 15.1591C293.225 12.553 291.559 10.5833 289.438 9.25C287.331 7.90151 284.945 7.22727 282.278 7.22727C279.597 7.22727 277.203 7.90151 275.097 9.25C272.991 10.5833 271.324 12.553 270.097 15.1591C268.884 17.75 268.278 20.9394 268.278 24.7273C268.278 28.5152 268.884 31.7121 270.097 34.3182C271.324 36.9091 272.991 38.8788 275.097 40.2273C277.203 41.5606 279.597 42.2273 282.278 42.2273C284.945 42.2273 287.331 41.5606 289.438 40.2273C291.559 38.8788 293.225 36.9091 294.438 34.3182C295.665 31.7121 296.278 28.5152 296.278 24.7273ZM311.989 1.45454H320.511L335.33 37.6364H335.875L350.693 1.45454H359.216V48H352.534V14.3182H352.102L338.375 47.9318H332.83L319.102 14.2955H318.67V48H311.989V1.45454ZM373.358 48H365.903L382.653 1.45454H390.767L407.517 48H400.062L386.903 9.90909H386.54L373.358 48ZM374.608 29.7727H398.79V35.6818H374.608V29.7727ZM414.239 1.45454H422.761L437.58 37.6364H438.125L452.943 1.45454H461.466V48H454.784V14.3182H454.352L440.625 47.9318H435.08L421.352 14.2955H420.92V48H414.239V1.45454ZM512.108 24.7273C512.108 29.697 511.199 33.9697 509.381 37.5455C507.563 41.1061 505.07 43.8485 501.903 45.7727C498.752 47.6818 495.169 48.6364 491.153 48.6364C487.123 48.6364 483.525 47.6818 480.358 45.7727C477.206 43.8485 474.722 41.0985 472.903 37.5227C471.085 33.947 470.176 29.6818 470.176 24.7273C470.176 19.7576 471.085 15.4924 472.903 11.9318C474.722 8.35606 477.206 5.61363 480.358 3.70454C483.525 1.7803 487.123 0.81818 491.153 0.81818C495.169 0.81818 498.752 1.7803 501.903 3.70454C505.07 5.61363 507.563 8.35606 509.381 11.9318C511.199 15.4924 512.108 19.7576 512.108 24.7273ZM505.153 24.7273C505.153 20.9394 504.54 17.75 503.312 15.1591C502.1 12.553 500.434 10.5833 498.312 9.25C496.206 7.90151 493.82 7.22727 491.153 7.22727C488.472 7.22727 486.078 7.90151 483.972 9.25C481.866 10.5833 480.199 12.553 478.972 15.1591C477.759 17.75 477.153 20.9394 477.153 24.7273C477.153 28.5152 477.759 31.7121 478.972 34.3182C480.199 36.9091 481.866 38.8788 483.972 40.2273C486.078 41.5606 488.472 42.2273 491.153 42.2273C493.82 42.2273 496.206 41.5606 498.312 40.2273C500.434 38.8788 502.1 36.9091 503.312 34.3182C504.54 31.7121 505.153 28.5152 505.153 24.7273ZM520.864 48V1.45454H537.455C541.061 1.45454 544.053 2.07576 546.432 3.31818C548.826 4.5606 550.614 6.2803 551.795 8.47727C552.977 10.6591 553.568 13.1818 553.568 16.0455C553.568 18.8939 552.97 21.4015 551.773 23.5682C550.591 25.7197 548.803 27.3939 546.409 28.5909C544.03 29.7879 541.038 30.3864 537.432 30.3864H524.864V24.3409H536.795C539.068 24.3409 540.917 24.0152 542.341 23.3636C543.78 22.7121 544.833 21.7652 545.5 20.5227C546.167 19.2803 546.5 17.7879 546.5 16.0455C546.5 14.2879 546.159 12.7651 545.477 11.4773C544.811 10.1894 543.758 9.20454 542.318 8.52273C540.894 7.82576 539.023 7.47727 536.705 7.47727H527.886V48H520.864ZM543.841 27L555.341 48H547.341L536.068 27H543.841ZM569.136 1.45454V48H562.114V1.45454H569.136Z" fill="white"/>
</svg>
